<svg width="20" height="20" viewBox="0 0 20 20" fill="none" xmlns="http://www.w3.org/2000/svg">
<path d="M15.5776 6.08726L15.5887 6.07376L12.4122 3.50082L11.4116 4.73488L13.0531 6.06423C12.6459 6.31167 12.3225 6.6759 12.1251 7.10955C11.9277 7.54321 11.8653 8.02623 11.9461 8.49582C12.0652 9.20973 12.5567 9.82676 13.1928 10.1722C13.9036 10.5589 14.5269 10.5232 15.0812 10.3263L15.0693 15.2355C15.0703 15.367 15.0384 15.4966 14.9767 15.6127C14.9149 15.7288 14.8252 15.8277 14.7156 15.9004C14.606 15.9731 14.48 16.0173 14.3491 16.029C14.2181 16.0408 14.0863 16.0197 13.9655 15.9677C13.871 15.9271 13.7852 15.8686 13.713 15.7953C13.565 15.6466 13.4819 15.4453 13.4819 15.2355L13.5001 13.6473C13.5009 13.3347 13.4398 13.025 13.3203 12.7362C13.2007 12.4474 13.0252 12.1851 12.8037 11.9645C12.5825 11.7428 12.3197 11.5669 12.0304 11.4468C11.7411 11.3268 11.431 11.265 11.1178 11.2649H10.3237V4.91197C10.3237 4.49074 10.1563 4.08677 9.85849 3.78891C9.56064 3.49106 9.15666 3.32373 8.73544 3.32373H3.17661C2.75539 3.32373 2.35141 3.49106 2.05356 3.78891C1.75571 4.08677 1.58838 4.49074 1.58838 4.91197V16.0296C1.58838 16.4508 1.75571 16.8548 2.05356 17.1527C2.35141 17.4505 2.75539 17.6178 3.17661 17.6178H8.73544C9.15666 17.6178 9.56064 17.4505 9.85849 17.1527C10.1563 16.8548 10.3237 16.4508 10.3237 16.0296V12.8531H11.1178C11.2263 12.8531 11.3298 12.8738 11.4283 12.9151C11.6172 12.998 11.7678 13.1491 11.85 13.3383C11.891 13.4361 11.9121 13.5412 11.9119 13.6473L11.8928 15.2355C11.8928 15.5579 11.9556 15.87 12.0803 16.163C12.2002 16.4481 12.3725 16.703 12.5893 16.9182C12.8097 17.141 13.0724 17.3176 13.3618 17.4377C13.6513 17.5579 13.9618 17.6191 14.2752 17.6178C14.5987 17.6178 14.9078 17.5554 15.2027 17.4304C15.487 17.3113 15.7427 17.139 15.9579 16.9214C16.1804 16.7007 16.3567 16.438 16.4768 16.1486C16.5969 15.8592 16.6584 15.5488 16.6576 15.2355L16.6766 8.08844C16.6756 7.68953 16.5745 7.29726 16.3824 6.94761C16.1904 6.59797 15.9136 6.30214 15.5776 6.08726ZM8.73544 7.29432H3.17661V4.91197H8.73544V7.29432ZM14.2943 8.88255C14.0836 8.88255 13.8817 8.79889 13.7327 8.64996C13.5838 8.50104 13.5001 8.29905 13.5001 8.08844C13.5001 7.87782 13.5838 7.67584 13.7327 7.52691C13.8817 7.37798 14.0836 7.29432 14.2943 7.29432C14.5049 7.29432 14.7069 7.37798 14.8558 7.52691C15.0047 7.67584 15.0884 7.87782 15.0884 8.08844C15.0884 8.29905 15.0047 8.50104 14.8558 8.64996C14.7069 8.79889 14.5049 8.88255 14.2943 8.88255Z" fill="#00F0FF"/>
</svg>
