<svg width="22" height="23" viewBox="0 0 22 23" fill="none" xmlns="http://www.w3.org/2000/svg">
<path d="M9.9 8.52422H12.1V6.32422H9.9M11 20.6242C6.149 20.6242 2.2 16.6752 2.2 11.8242C2.2 6.97322 6.149 3.02422 11 3.02422C15.851 3.02422 19.8 6.97322 19.8 11.8242C19.8 16.6752 15.851 20.6242 11 20.6242ZM11 0.824219C9.55546 0.824219 8.12506 1.10874 6.79048 1.66154C5.4559 2.21435 4.24327 3.0246 3.22183 4.04604C1.15893 6.10894 0 8.90684 0 11.8242C0 14.7416 1.15893 17.5395 3.22183 19.6024C4.24327 20.6238 5.4559 21.4341 6.79048 21.9869C8.12506 22.5397 9.55546 22.8242 11 22.8242C13.9174 22.8242 16.7153 21.6653 18.7782 19.6024C20.8411 17.5395 22 14.7416 22 11.8242C22 10.3797 21.7155 8.94928 21.1627 7.6147C20.6099 6.28012 19.7996 5.06749 18.7782 4.04604C17.7567 3.0246 16.5441 2.21435 15.2095 1.66154C13.8749 1.10874 12.4445 0.824219 11 0.824219ZM9.9 17.3242H12.1V10.7242H9.9V17.3242Z" fill="currentColor"/>
</svg>
