<svg width="100" height="28" viewBox="0 0 100 28" fill="none" xmlns="http://www.w3.org/2000/svg">
<path d="M44.8471 23.5338H42.5143C41.5516 23.5338 40.7231 23.1913 40.0289 22.5063C39.3346 21.8213 38.9875 20.9974 38.9875 20.0347V12.4672H37.7933C37.4693 12.4672 37.1916 12.3561 36.9602 12.134C36.738 11.9118 36.627 11.6341 36.627 11.3009C36.627 10.9769 36.738 10.7038 36.9602 10.4816C37.1916 10.2502 37.4693 10.1345 37.7933 10.1345H39.0152V7.27413C39.0152 6.95013 39.1263 6.67706 39.3485 6.45489C39.5799 6.22347 39.8576 6.10776 40.1816 6.10776C40.4871 6.10776 40.7555 6.22347 40.9869 6.45489C41.2276 6.68631 41.348 6.95939 41.348 7.27413V10.1345H46.0412C46.3559 10.1345 46.629 10.2502 46.8604 10.4816C47.0918 10.7131 47.2076 10.9861 47.2076 11.3009C47.2076 11.6249 47.0918 11.9026 46.8604 12.134C46.629 12.3561 46.3559 12.4672 46.0412 12.4672H41.3202V20.0347C41.3202 20.3495 41.4359 20.6225 41.6673 20.854C41.908 21.0854 42.1903 21.2011 42.5143 21.2011H44.7915C45.4117 21.2011 45.8237 20.8678 46.0273 20.2013C46.231 19.5256 46.6244 19.1877 47.2076 19.1877C47.5501 19.1877 47.8278 19.3034 48.0407 19.5349C48.2628 19.757 48.3739 20.0393 48.3739 20.3819C48.3739 21.0854 48.0407 21.7889 47.3742 22.4924C46.7169 23.1867 45.8746 23.5338 44.8471 23.5338Z" fill="white"/>
<path d="M58.5102 4.05273H59.7321C60.0561 4.05273 60.3292 4.16845 60.5513 4.39987C60.7828 4.62203 60.8985 4.89511 60.8985 5.2191V6.21884C60.8985 6.54283 60.7828 6.82517 60.5513 7.06585C60.3292 7.29727 60.0561 7.41298 59.7321 7.41298H58.4824C58.1492 7.41298 57.8668 7.29264 57.6354 7.05196C57.4133 6.81128 57.3068 6.54283 57.3161 6.24661L57.3438 5.2191C57.3438 4.89511 57.4549 4.62203 57.6771 4.39987C57.9085 4.16845 58.1862 4.05273 58.5102 4.05273ZM63.259 23.506H56.1497C55.8257 23.506 55.548 23.395 55.3166 23.1728C55.0944 22.9414 54.9833 22.6637 54.9833 22.3397C54.9833 22.0249 55.0944 21.7519 55.3166 21.5204C55.548 21.289 55.8257 21.1733 56.1497 21.1733H58.538V12.4672H56.1775C55.8535 12.4672 55.5758 12.3515 55.3443 12.1201C55.1222 11.8887 55.0111 11.6156 55.0111 11.3009C55.0111 10.9769 55.1222 10.6992 55.3443 10.4677C55.5758 10.2271 55.8535 10.1067 56.1775 10.1067H59.7321C60.0561 10.1067 60.3292 10.2271 60.5513 10.4677C60.7828 10.6992 60.8985 10.9769 60.8985 11.3009V21.1733H63.2312C63.5552 21.1733 63.8329 21.289 64.0643 21.5204C64.305 21.7426 64.4253 22.0157 64.4253 22.3397C64.4253 22.6637 64.3096 22.9414 64.0782 23.1728C63.8468 23.395 63.5737 23.506 63.259 23.506Z" fill="white"/>
<path d="M80.449 23.5338H73.3952C73.0712 23.5338 72.7935 23.4181 72.5621 23.1867C72.34 22.946 72.2289 22.6637 72.2289 22.3397C72.2289 22.0249 72.34 21.7519 72.5621 21.5204C72.7935 21.289 73.0712 21.1733 73.3952 21.1733H75.728V7.41298H73.3675C73.0435 7.41298 72.7658 7.3019 72.5344 7.07973C72.3122 6.84831 72.2011 6.5706 72.2011 6.24661C72.2011 5.92262 72.3122 5.64954 72.5344 5.42738C72.7658 5.19596 73.0435 5.08025 73.3675 5.08025H76.9221C77.2368 5.08025 77.5099 5.19596 77.7413 5.42738C77.9728 5.6588 78.0885 5.93188 78.0885 6.24661V21.1733H80.449C80.7637 21.1733 81.0368 21.289 81.2682 21.5204C81.4996 21.7519 81.6153 22.0249 81.6153 22.3397C81.6153 22.6637 81.4996 22.946 81.2682 23.1867C81.046 23.4181 80.773 23.5338 80.449 23.5338Z" fill="white"/>
<path d="M96.4171 23.5338H94.0843C93.1216 23.5338 92.2931 23.1913 91.5989 22.5063C90.9046 21.8213 90.5575 20.9974 90.5575 20.0347V12.4672H89.3633C89.0393 12.4672 88.7616 12.3561 88.5302 12.134C88.3081 11.9118 88.197 11.6341 88.197 11.3009C88.197 10.9769 88.3081 10.7038 88.5302 10.4816C88.7616 10.2502 89.0393 10.1345 89.3633 10.1345H90.5852V7.27413C90.5852 6.95013 90.6963 6.67706 90.9185 6.45489C91.1499 6.22347 91.4276 6.10776 91.7516 6.10776C92.0571 6.10776 92.3255 6.22347 92.557 6.45489C92.7976 6.68631 92.918 6.95939 92.918 7.27413V10.1345H97.6112C97.9259 10.1345 98.199 10.2502 98.4304 10.4816C98.6619 10.7131 98.7776 10.9861 98.7776 11.3009C98.7776 11.6249 98.6619 11.9026 98.4304 12.134C98.199 12.3561 97.9259 12.4672 97.6112 12.4672H92.8902V20.0347C92.8902 20.3495 93.0059 20.6225 93.2373 20.854C93.478 21.0854 93.7604 21.2011 94.0843 21.2011H96.3615C96.9817 21.2011 97.3937 20.8678 97.5973 20.2013C97.801 19.5256 98.1944 19.1877 98.7776 19.1877C99.1201 19.1877 99.3978 19.3034 99.6107 19.5349C99.8329 19.757 99.9439 20.0393 99.9439 20.3819C99.9439 21.0854 99.6107 21.7889 98.9442 22.4924C98.287 23.1867 97.4446 23.5338 96.4171 23.5338Z" fill="white"/>
<path fill-rule="evenodd" clip-rule="evenodd" d="M11.4404 27.42C18.3832 27.7399 24.2707 22.3711 24.5906 15.4283C24.6931 13.2039 24.2116 11.0878 23.2815 9.22839L0.33864 19.5388C2.12042 23.969 6.35885 27.1858 11.4404 27.42Z" fill="#ACFF02"/>
<circle cx="8.11206" cy="5.88354" r="5.88354" fill="#ACFF02"/>
</svg>
