<svg width="139" height="139" viewBox="0 0 139 139" fill="none" xmlns="http://www.w3.org/2000/svg">
<path d="M125.969 60.8125H73.8438V47.7812H78.1875C80.4916 47.7812 82.7013 46.866 84.3305 45.2367C85.9597 43.6075 86.875 41.3978 86.875 39.0938V21.7188C86.875 19.4147 85.9597 17.205 84.3305 15.5758C82.7013 13.9465 80.4916 13.0313 78.1875 13.0312H60.8125C58.5084 13.0313 56.2987 13.9465 54.6695 15.5758C53.0403 17.205 52.125 19.4147 52.125 21.7188V39.0938C52.125 41.3978 53.0403 43.6075 54.6695 45.2367C56.2987 46.866 58.5084 47.7812 60.8125 47.7812H65.1562V60.8125H13.0312C11.8792 60.8125 10.7744 61.2701 9.95975 62.0848C9.14514 62.8994 8.6875 64.0042 8.6875 65.1562C8.6875 66.3083 9.14514 67.4131 9.95975 68.2277C10.7744 69.0424 11.8792 69.5 13.0312 69.5H30.4062V86.875H26.0625C23.7584 86.875 21.5487 87.7903 19.9195 89.4195C18.2903 91.0487 17.375 93.2584 17.375 95.5625V112.938C17.375 115.242 18.2903 117.451 19.9195 119.08C21.5487 120.71 23.7584 121.625 26.0625 121.625H43.4375C45.7416 121.625 47.9513 120.71 49.5805 119.08C51.2097 117.451 52.125 115.242 52.125 112.938V95.5625C52.125 93.2584 51.2097 91.0487 49.5805 89.4195C47.9513 87.7903 45.7416 86.875 43.4375 86.875H39.0938V69.5H99.9062V78.1875C99.9062 79.3395 100.364 80.4444 101.179 81.259C101.993 82.0736 103.098 82.5312 104.25 82.5312C105.402 82.5312 106.507 82.0736 107.321 81.259C108.136 80.4444 108.594 79.3395 108.594 78.1875V69.5H125.969C127.121 69.5 128.226 69.0424 129.04 68.2277C129.855 67.4131 130.312 66.3083 130.312 65.1562C130.312 64.0042 129.855 62.8994 129.04 62.0848C128.226 61.2701 127.121 60.8125 125.969 60.8125ZM60.8125 21.7188H78.1875V39.0938H60.8125V21.7188ZM43.4375 112.938H26.0625V95.5625H43.4375V112.938ZM120.349 94.292L110.391 104.25L120.354 114.208C120.758 114.612 121.078 115.091 121.297 115.618C121.515 116.145 121.627 116.711 121.627 117.281C121.627 117.852 121.515 118.417 121.297 118.944C121.078 119.472 120.758 119.951 120.354 120.354C119.951 120.758 119.472 121.078 118.944 121.297C118.417 121.515 117.852 121.627 117.281 121.627C116.711 121.627 116.145 121.515 115.618 121.297C115.091 121.078 114.612 120.758 114.208 120.354L104.25 110.391L94.292 120.354C93.4769 121.17 92.3714 121.627 91.2188 121.627C90.0661 121.627 88.9606 121.17 88.1455 120.354C87.3305 119.539 86.8726 118.434 86.8726 117.281C86.8726 116.129 87.3305 115.023 88.1455 114.208L98.109 104.25L88.1455 94.292C87.3305 93.4769 86.8726 92.3714 86.8726 91.2188C86.8726 90.0661 87.3305 88.9606 88.1455 88.1455C88.9606 87.3305 90.0661 86.8726 91.2188 86.8726C92.3714 86.8726 93.4769 87.3305 94.292 88.1455L104.25 98.109L114.208 88.1455C115.023 87.3305 116.129 86.8726 117.281 86.8726C118.434 86.8726 119.539 87.3305 120.354 88.1455C121.17 88.9606 121.627 90.0661 121.627 91.2188C121.627 92.3714 121.17 93.4769 120.354 94.292H120.349Z" fill="#ACFF02"/>
</svg>
