<svg width="33" height="30" viewBox="0 0 33 30" fill="none" xmlns="http://www.w3.org/2000/svg">
<g clip-path="url(#clip0_638_5904)">
<path fill-rule="evenodd" clip-rule="evenodd" d="M23.4113 0C25.9557 0 28.3958 0.989111 30.1949 2.74974C31.9941 4.51037 33.0048 6.8983 33.0048 9.3882V20.6181C33.0048 23.108 31.9941 25.4959 30.1949 27.2565C28.3958 29.0171 25.9557 30.0063 23.4113 30.0063H9.59349C7.04979 30.0042 4.61088 29.0144 2.81221 27.2542C1.01354 25.494 0.00211711 23.1073 0 20.6181L0 9.3882C0 6.8983 1.01074 4.51037 2.80987 2.74974C4.609 0.989111 7.04914 0 9.59349 0L23.4113 0ZM23.4113 2.34705H9.59349C7.68523 2.34705 5.85512 3.08888 4.50577 4.40936C3.15643 5.72983 2.39837 7.52077 2.39837 9.3882V20.6181C2.39837 22.4855 3.15643 24.2764 4.50577 25.5969C5.85512 26.9174 7.68523 27.6592 9.59349 27.6592H23.4145C25.3228 27.6592 27.1529 26.9174 28.5022 25.5969C29.8516 24.2764 30.6096 22.4855 30.6096 20.6181V20.1846H25.3332C24.6107 20.1846 23.8953 20.0454 23.2277 19.7748C22.5602 19.5042 21.9537 19.1076 21.4428 18.6077C20.9319 18.1077 20.5266 17.5142 20.2501 16.8609C19.9736 16.2077 19.8313 15.5076 19.8313 14.8005C19.8313 14.0934 19.9736 13.3933 20.2501 12.7401C20.5266 12.0868 20.9319 11.4933 21.4428 10.9933C21.9537 10.4934 22.5602 10.0968 23.2277 9.82621C23.8953 9.55563 24.6107 9.41637 25.3332 9.41637H30.6096V9.3882C30.6096 8.46328 30.4234 7.54742 30.0616 6.69295C29.6998 5.83847 29.1696 5.06212 28.5011 4.40825C27.8326 3.75438 27.0391 3.23579 26.1657 2.88213C25.2924 2.52846 24.3565 2.34664 23.4113 2.34705ZM30.6064 11.7556H25.33C24.9225 11.7556 24.5189 11.8342 24.1424 11.9868C23.7658 12.1394 23.4237 12.3631 23.1355 12.6451C22.8473 12.9272 22.6187 13.262 22.4628 13.6304C22.3068 13.9989 22.2265 14.3938 22.2265 14.7927C22.2265 15.1915 22.3068 15.5864 22.4628 15.9549C22.6187 16.3234 22.8473 16.6582 23.1355 16.9402C23.4237 17.2222 23.7658 17.4459 24.1424 17.5986C24.5189 17.7512 24.9225 17.8298 25.33 17.8298H30.6064V11.7556ZM26.0623 13.5253C26.3804 13.5253 26.6854 13.6489 26.9103 13.869C27.1352 14.0891 27.2615 14.3876 27.2615 14.6988C27.2615 15.01 27.1352 15.3085 26.9103 15.5286C26.6854 15.7487 26.3804 15.8723 26.0623 15.8723H25.5634C25.2454 15.8723 24.9404 15.7487 24.7155 15.5286C24.4906 15.3085 24.3643 15.01 24.3643 14.6988C24.3643 14.3876 24.4906 14.0891 24.7155 13.869C24.9404 13.6489 25.2454 13.5253 25.5634 13.5253H26.0623Z" fill="#ACFF02"/>
</g>
<defs>
<clipPath id="clip0_638_5904">
<rect width="33" height="30" fill="white"/>
</clipPath>
</defs>
</svg>
